<?xml version="1.0" encoding="utf-8"?>
<!-- Generator: Adobe Illustrator 21.0.0, SVG Export Plug-In . SVG Version: 6.00 Build 0)  -->
<svg version="1.1" id="katman_1" xmlns="http://www.w3.org/2000/svg" xmlns:xlink="http://www.w3.org/1999/xlink" x="0px" y="0px"
	 viewBox="0 0 841.9 595.3" style="enable-background:new 0 0 841.9 595.3;" xml:space="preserve">
<style type="text/css">
	.st0{fill:#452773;}
	.st1{fill:#4A5054;}
</style>
<g>
	<g>
		<g>
			<g>
				<path class="st0" d="M299.1,234.8c0.4-2.6-14.4,7.6-28.8,44.1s-23.5,38.9-42.6,37.6c-3.3-0.2-0.4,4.4,0.7,5.2
					c1.1,0.9,11.9,0.5,14.6-1.1c2.7-1.5,6.6-2.4,14.8-10.3c8.2-7.9,14.6-20.9,17-25.9c2.4-4.9,13.6-32.9,14.8-31.6
					c1,1.1,0.2,57.2-1,66.3c-1.1,8.4,14.8-15.9,17.5-21.4c4.6-9.5,19.7-50.2,20.5-46.7c0.5,2.2-1.3,25.9-1.5,28.8
					c-0.4,7.5-1.1,36.8,3.3,40.3c6.5,5.1,20.2-19.5,21.7-22.6c1.5-3.1,2.6-7.2,1.7-7.8c-0.9-0.6-2.5,6.4-5.6,11
					c-2.5,3.7-8.6,13.7-10.8,11.2c-2.8-3,1.7-74.7,3.7-76.3c2.7-2.2-3.4-3.3-11.8,4.8c-9.1,8.9-23.2,57.5-28.8,63.3
					c-1.3,1.3-0.1,1,0-17.9C298.7,270.1,297.4,247.1,299.1,234.8z"/>
			</g>
			<g>
				<path class="st0" d="M412.2,258.4c-3.8,1.3-12.7,7.7-12,9.2c0.7,1.5,5.1-4.1,6.3,1.4c1.2,5.5,9.8,39.2,7.5,48.3
					c-2.2,9.1,7-7.3,7.5-12.8C422.2,298.9,416.5,256.9,412.2,258.4z"/>
			</g>
			<g>
				<path class="st0" d="M482.7,224.2c-0.3-2.6-22.2,11.2-39.9,33.1c-10,12.4-13.6,22-22.6,45.5c-14.6,37.7-16.3,60.3-57.3,66.2
					c-2.3,0.3-13.6,2.7-10.5,4c5.8,2.5,27.4,0.8,42-11.8c6-5.2,17.1-13.6,32-58.1c14.4-43.1,32.6-61,45.6-70.1
					C475,231,483.2,228.2,482.7,224.2z"/>
			</g>
			<g>
				<path class="st0" d="M292.2,234.9c-3.5,2.4-59.9,3.4-90.7,23c-35.3,22.5-53.7,82.1-42.3,83.8c16.5,2.5,61-38.2,81-69.4
					c20.9-32.4,27.7-35.7,41.5-45.8c25-18.4,71.4-43.4,100.7-50.5c55.7-13.6,122.1-3,142,10.6c8.6,5.9,1.7,12.2-6.7,19
					c-3.6,2.9,15-3,20.9-18c3.7-9.3-39.3-28.3-99.8-24.4c-45.2,2.9-101.5,18.5-156.6,59.1c-31.7,23.4-33.2,30.7-58.5,64.5
					c-14.9,19.8-30.8,37.7-54.3,49.5c-16.2,8.1-6.2-62.9,47-82.8c15.4-5.8,16.1-7.1,69.3-11.6C290.3,241.4,296,232.2,292.2,234.9z"
					/>
			</g>
			<g>
				<path class="st0" d="M643.2,306.6c6.2-3.9,20.1-19.7,8.7-30.6c-11.4-10.8-56.9-10.1-93.7,3.3s-76.1,38.3-82.3,43
					c-6.2,4.6-2.5,4.1,2.3,1.5c4.8-2.5,62.1-42.2,106.1-48c43.9-5.8,73.2,2.5,56.1,28.8C634.2,314.3,643.2,306.6,643.2,306.6z"/>
			</g>
			<g>
				<g>
					<path class="st0" d="M385.8,315.1c4.8-1.9,19.8-21.1,22.9-28.9s3.1,0.3,1,3.1c-3.5,4.5-17,29.2-31.5,31
						C373.6,320.9,381,317.1,385.8,315.1z"/>
				</g>
				<g>
					<path class="st0" d="M397.2,258.8c-5.6,4.5-13.6,54.8-12,55.4c2.3,0.9,7.5-5.3,5.7-2.7c-0.9,1.3,0.5,5.2-13.5,9.5
						c-4.9,1.5,3.3-34.9,1.1-31.2c-2.1,3.8-24.8,37.6-31,30.2c-5.8-6.9,1.5-40,12.4-52.1c11.2-12.6,24.9-9.6,30.6-7.5
						C390.6,260.4,402.9,254.3,397.2,258.8z M380.6,266.2c-4-0.7-12.9-0.2-15.9,3.5c-2.8,3.5-4.8,10.2-6.8,19.1
						c-2.6,11.4-4.2,24.5-1,24.1c2.7-0.3,22.5-25.8,24-32C382.6,273.4,384.7,267,380.6,266.2z"/>
				</g>
			</g>
		</g>
		<g>
			<path class="st0" d="M490.4,259.3c-5.6,4.5-11.7,52.7-10.3,54.2c2,2.1,6-2.5,6.3-1.8c0.6,1.7-5.1,6.6-14.6,9.2
				c-5,1.4,2.1-34.4,0-30.6c-2.1,3.8-24.8,37.6-31,30.2c-5.8-6.9,1.5-40,12.4-52.1c11.2-12.6,24.9-9.6,30.6-7.5
				C483.7,260.9,496,254.8,490.4,259.3z M473.8,266.8c-4-0.7-12.9-0.2-15.9,3.5c-2.8,3.5-4.8,10.2-6.8,19.1
				c-2.6,11.4-4.2,24.5-1,24.1c2.7-0.3,22.5-25.8,24-32C475.8,273.9,477.9,267.5,473.8,266.8z"/>
		</g>
	</g>
	<g>
		<path class="st1" d="M429.9,345.2h3.1l13.6,30.5h-4.4l-4-9h-12.9l-3.8,9h-4.5L429.9,345.2z M436.3,362.9l-4.9-11l-4.5,11H436.3z"
			/>
		<path class="st1" d="M474.2,368.7v4.8c-3.2,1.7-6.9,2.6-11,2.6c-3.4,0-6.3-0.7-8.6-2c-2.4-1.4-4.2-3.2-5.6-5.6s-2.1-5-2.1-7.7
			c0-4.4,1.6-8.1,4.7-11.1c3.1-3,7-4.5,11.6-4.5c3.2,0,6.7,0.8,10.6,2.5v4.7c-3.5-2-7-3-10.4-3c-3.5,0-6.4,1.1-8.6,3.3
			c-2.3,2.2-3.4,4.9-3.4,8.2c0,3.3,1.1,6.1,3.4,8.2c2.3,2.1,5.1,3.2,8.7,3.2C467.1,372.1,470.7,371,474.2,368.7z"/>
		<path class="st1" d="M490.3,345.2h3.1l13.6,30.5h-4.4l-4-9h-12.9l-3.8,9h-4.5L490.3,345.2z M496.7,362.9l-4.9-11l-4.5,11H496.7z"
			/>
		<path class="st1" d="M510.4,375.7v-30.3h10.2c4.1,0,7.4,0.6,9.8,1.9c2.4,1.2,4.3,3.1,5.7,5.5c1.4,2.4,2.1,5,2.1,7.9
			c0,2-0.4,4-1.2,5.8c-0.8,1.9-1.9,3.5-3.3,4.9c-1.5,1.4-3.2,2.5-5.1,3.3c-1.1,0.4-2.2,0.7-3.1,0.9c-1,0.2-2.8,0.2-5.5,0.2H510.4z
			 M520.1,349.3h-5.4v22.6h5.6c2.2,0,3.9-0.1,5.1-0.4c1.2-0.3,2.2-0.7,3-1.1s1.5-1,2.2-1.7c2.1-2.2,3.2-4.9,3.2-8.2
			c0-3.3-1.1-5.9-3.3-8c-0.8-0.8-1.7-1.4-2.8-1.9c-1.1-0.5-2-0.8-3-1C523.7,349.3,522.2,349.3,520.1,349.3z"/>
		<path class="st1" d="M543.7,345.4h17.2v3.9H548v9.2h12.4v3.9H548v9.4h13.3v3.9h-17.6V345.4z"/>
		<path class="st1" d="M590,345.4h4.1v30.3h-4.4v-23.6l-9.3,11.7h-0.8l-9.4-11.7v23.6h-4.3v-30.3h4.1l10.1,12.5L590,345.4z"/>
		<path class="st1" d="M600.6,345.4h4.3v30.3h-4.3V345.4z"/>
		<path class="st1" d="M621.4,345.2h3.1l13.6,30.5h-4.4l-4-9h-12.9l-3.8,9h-4.5L621.4,345.2z M627.8,362.9l-4.9-11l-4.5,11H627.8z"
			/>
	</g>
</g>
</svg>
